<svg width="125" height="125" viewBox="0 0 125 125" fill="none" xmlns="http://www.w3.org/2000/svg">
<g filter="url(#filter0_d_453_387)">
<path d="M69.4948 26.1689C70.9641 24.078 74.2434 24.9567 74.4704 27.5021L75.1501 35.1001C75.6828 41.0605 77.5088 46.8331 80.5008 52.0155C83.4929 57.198 87.5791 61.6656 92.4746 65.1071L98.7149 69.4948C100.809 70.965 99.9306 74.2443 97.3817 74.4703L89.7836 75.1501C83.8232 75.6827 78.0507 77.5087 72.8682 80.5007C67.6858 83.4928 63.2182 87.579 59.7767 92.4746L55.389 98.7148C53.9188 100.809 50.6395 99.9305 50.4135 97.3816L49.7337 89.7835C49.2011 83.8231 47.3751 78.0506 44.383 72.8682C41.3909 67.6857 37.3048 63.2181 32.4092 59.7766L26.169 55.3889C24.0781 53.9197 24.9568 50.6403 27.5022 50.4134L35.1002 49.7336C41.0606 49.201 46.8332 47.375 52.0156 44.3829C57.198 41.3909 61.6657 37.3047 65.1071 32.4091L69.4948 26.1689Z" fill="white"/>
</g>
<defs>
<filter id="filter0_d_453_387" x="0" y="0" width="124.886" height="124.886" filterUnits="userSpaceOnUse" color-interpolation-filters="sRGB">
<feFlood flood-opacity="0" result="BackgroundImageFix"/>
<feColorMatrix in="SourceAlpha" type="matrix" values="0 0 0 0 0 0 0 0 0 0 0 0 0 0 0 0 0 0 127 0" result="hardAlpha"/>
<feOffset/>
<feGaussianBlur stdDeviation="12.5"/>
<feComposite in2="hardAlpha" operator="out"/>
<feColorMatrix type="matrix" values="0 0 0 0 0.726215 0 0 0 0 0.48334 0 0 0 0 1 0 0 0 1 0"/>
<feBlend mode="normal" in2="BackgroundImageFix" result="effect1_dropShadow_453_387"/>
<feBlend mode="normal" in="SourceGraphic" in2="effect1_dropShadow_453_387" result="shape"/>
</filter>
</defs>
</svg>
